<?xml version="1.0" encoding="utf-8"?>
<!-- Generator: Adobe Illustrator 26.0.1, SVG Export Plug-In . SVG Version: 6.00 Build 0)  -->
<svg version="1.1" id="Layer_1" xmlns="http://www.w3.org/2000/svg" xmlns:xlink="http://www.w3.org/1999/xlink" x="0px" y="0px"
	 viewBox="0 0 155 41" style="enable-background:new 0 0 155 41;" xml:space="preserve">
<style type="text/css">
	.st0{fill:#EDEDEE;}
</style>
<g>
	<g>
		<path class="st0" d="M10.1,30.5c-0.9-0.2-1.7-0.5-2.4-0.8c-0.7-0.4-1.4-0.8-2.1-1.4l1.7-2.1c0.8,0.7,1.6,1.1,2.5,1.5
			c0.9,0.3,1.9,0.5,3,0.5c1.4,0,2.6-0.3,3.3-0.8s1.2-1.3,1.2-2.3v0c0-0.7-0.2-1.2-0.5-1.6c-0.4-0.4-0.8-0.7-1.4-0.9
			c-0.6-0.2-1.3-0.4-2.2-0.5c0,0-0.1,0-0.1,0c0,0-0.1,0-0.1,0l-0.2,0c-1.3-0.2-2.4-0.5-3.2-0.8S8,20.4,7.5,19.6
			c-0.6-0.8-0.9-1.8-0.9-3.2v0c0-1.2,0.3-2.3,0.8-3.2c0.6-0.9,1.4-1.5,2.4-2c1.1-0.5,2.3-0.7,3.8-0.7c0.7,0,1.4,0.1,2.1,0.2
			c0.7,0.2,1.4,0.4,2,0.7c0.7,0.3,1.3,0.7,2,1.2l-1.6,2.2c-0.8-0.6-1.5-1-2.3-1.3c-0.8-0.3-1.5-0.4-2.3-0.4c-1.4,0-2.4,0.3-3.2,0.8
			c-0.8,0.5-1.1,1.3-1.1,2.3v0c0,0.7,0.2,1.2,0.6,1.6c0.4,0.4,0.9,0.7,1.4,0.9c0.6,0.2,1.4,0.4,2.4,0.6c0,0,0.1,0,0.1,0
			c0,0,0.1,0,0.1,0c0,0,0.1,0,0.2,0c0.1,0,0.1,0,0.2,0c1.2,0.2,2.2,0.5,3,0.9c0.8,0.3,1.5,0.9,2,1.6c0.5,0.8,0.8,1.8,0.8,3.1v0
			c0,1.2-0.3,2.2-0.9,3.1s-1.4,1.5-2.5,2c-1.1,0.5-2.4,0.7-3.9,0.7C11.9,30.8,11,30.7,10.1,30.5z"/>
		<path class="st0" d="M27,29.9c-1.1-0.6-1.9-1.5-2.5-2.6c-0.6-1.1-0.9-2.4-0.9-3.8v-5.6c0-1.5,0.3-2.7,0.9-3.8
			c0.6-1.1,1.4-2,2.5-2.6c1.1-0.6,2.3-0.9,3.7-0.9c1.4,0,2.6,0.3,3.7,0.9c1.1,0.6,1.9,1.5,2.5,2.6c0.6,1.1,0.9,2.4,0.9,3.8v5.6
			c0,1.5-0.3,2.7-0.9,3.8c-0.6,1.1-1.4,2-2.5,2.6c-1.1,0.6-2.3,0.9-3.7,0.9C29.3,30.8,28.1,30.5,27,29.9z M32.8,27.5
			c0.6-0.4,1.1-0.9,1.4-1.6s0.5-1.5,0.5-2.4v-5.8c0-0.9-0.2-1.7-0.5-2.4c-0.3-0.7-0.8-1.2-1.4-1.6c-0.6-0.4-1.3-0.6-2.2-0.6
			s-1.5,0.2-2.2,0.6c-0.6,0.4-1.1,0.9-1.4,1.6c-0.3,0.7-0.5,1.5-0.5,2.4v5.8c0,0.9,0.2,1.7,0.5,2.4s0.8,1.2,1.4,1.6
			c0.6,0.4,1.3,0.6,2.2,0.6S32.2,27.9,32.8,27.5z"/>
		<path class="st0" d="M45,30.6h-2.8V10.7H45V30.6z"/>
		<path class="st0" d="M49.9,10.7h2.8v19.9h-2.8V10.7z M51.5,28h5.4c1.4,0,2.4-0.3,3.1-0.8c0.6-0.5,1-1.3,1-2.3v0
			c0-0.7-0.1-1.3-0.3-1.7S60,22.3,59.5,22c-0.5-0.3-1.1-0.4-1.9-0.4h-6.1v-2.5h6.1c1,0,1.8-0.2,2.3-0.7c0.5-0.5,0.8-1.2,0.8-2.1
			c0-1-0.3-1.7-0.9-2.2c-0.6-0.5-1.5-0.7-2.6-0.7h-5.7v-2.6h6.2c1.3,0,2.4,0.2,3.2,0.7c0.9,0.4,1.5,1.1,1.9,1.9
			c0.4,0.8,0.6,1.8,0.6,2.9c0,0.7-0.1,1.3-0.4,1.9c-0.3,0.6-0.7,1.1-1.2,1.5c-0.5,0.4-1.2,0.7-2,0.9c0.8,0.1,1.5,0.4,2.1,0.9
			c0.6,0.5,1,1,1.3,1.7c0.3,0.7,0.5,1.4,0.5,2.2v0c0,1.1-0.2,2-0.7,2.8c-0.5,0.8-1.2,1.5-2,1.9c-0.9,0.4-1.9,0.7-3.1,0.7h-6.4V28z"
			/>
		<path class="st0" d="M68,10.7h2.8v19.9H68V10.7z M69.3,10.7h11.4v2.7H69.3V10.7z M69.3,19.4h9.9v2.7h-9.9V19.4z M69.3,27.9h11.4
			v2.7H69.3V27.9z"/>
		<path class="st0" d="M84.7,10.7h2.8v19.9h-2.8V10.7z M86.1,27.9h11.4v2.7H86.1V27.9z"/>
		<path class="st0" d="M112,13.1l-8.7,14.8h8.9v2.7H99.9v-2.4l8.7-14.8h-8.5v-2.7H112V13.1z"/>
		<path class="st0" d="M118.9,29.9c-1.1-0.6-1.9-1.5-2.5-2.6s-0.9-2.4-0.9-3.8v-5.6c0-1.5,0.3-2.7,0.9-3.8s1.4-2,2.5-2.6
			c1.1-0.6,2.3-0.9,3.7-0.9s2.6,0.3,3.7,0.9c1.1,0.6,1.9,1.5,2.5,2.6s0.9,2.4,0.9,3.8v5.6c0,1.5-0.3,2.7-0.9,3.8s-1.4,2-2.5,2.6
			s-2.3,0.9-3.7,0.9S119.9,30.5,118.9,29.9z M124.7,27.5c0.6-0.4,1.1-0.9,1.4-1.6s0.5-1.5,0.5-2.4v-5.8c0-0.9-0.2-1.7-0.5-2.4
			c-0.3-0.7-0.8-1.2-1.4-1.6s-1.3-0.6-2.2-0.6s-1.5,0.2-2.2,0.6s-1.1,0.9-1.4,1.6c-0.3,0.7-0.5,1.5-0.5,2.4v5.8
			c0,0.9,0.2,1.7,0.5,2.4s0.8,1.2,1.4,1.6s1.3,0.6,2.2,0.6S124.1,27.9,124.7,27.5z"/>
		<path class="st0" d="M134,10.7h2.5l9.7,15.4l-0.3,0.4V10.7h2.8v19.9h-2.6l-9.7-15.1l0.3-0.4v15.5H134V10.7z"/>
	</g>
</g>
</svg>
