<?xml version="1.0" encoding="utf-8"?>
<!-- Generator: Adobe Illustrator 26.0.1, SVG Export Plug-In . SVG Version: 6.00 Build 0)  -->
<svg version="1.1" id="Layer_1" xmlns="http://www.w3.org/2000/svg" xmlns:xlink="http://www.w3.org/1999/xlink" x="0px" y="0px"
	 viewBox="0 0 16 16" style="enable-background:new 0 0 16 16;" xml:space="preserve">
<style type="text/css">
	.st0{fill:#4065AF;}
	.st1{fill:none;}
</style>
<rect x="8.5" y="3.9" class="st0" width="3" height="1.5"/>
<path class="st1" d="M4.6,3.8c-0.4,1-0.8,2.1-1,3.2C3.4,7.3,3.4,7.6,3.6,7.7c0.2,0.1,0.5-0.1,0.7-0.3C5,6.7,5.6,5.9,6,5.1
	C5.7,6.5,5.4,8,5.2,9.5c0.3-0.5,0.7-0.9,1-1.4"/>
<path class="st1" d="M7.4,10.7c0.7-0.1,1.4-0.1,2.1-0.2c0.3,0,0.6,0,0.9-0.2c0.2-0.1,0.4-0.2,0.6-0.3c0.2-0.1,0.3-0.2,0.4-0.4
	c0.2-0.3,0.2-0.7,0.2-1.1c0-0.2,0-0.4-0.1-0.6c-0.1-0.2-0.4-0.4-0.6-0.5c-1-0.6-2.3-0.8-3.4-0.6C6.6,7,5.8,7.4,5.4,8.1
	C5.2,8.6,5.2,9.2,5.5,9.7s0.8,0.9,1.3,1c0.3,0.1,0.7,0.1,1,0c0.4-0.1,0.8-0.3,1.1-0.6c0.5-0.3,0.9-0.7,1.3-1.2
	c0.3-0.4,0.7-0.8,0.6-1.3c-0.1-0.6-0.6-0.9-1.1-1.1C9.3,6.5,8.8,6.3,8.4,6.4c-0.5,0.1-0.9,0.5-0.9,1"/>
</svg>
